<svg width="32" height="32" viewBox="0 0 32 32" fill="none" xmlns="http://www.w3.org/2000/svg">
<path fill-rule="evenodd" clip-rule="evenodd" d="M13.5 15.8775C13.0076 16.2722 12.6103 16.7811 12.3484 17.3646L12.3435 17.3755C12.2661 17.5481 12.2011 17.6928 12.1483 17.8039C12.1022 17.9008 12.0337 18.0417 11.9469 18.1632C11.8208 18.3396 11.6555 18.5347 11.414 18.691C11.1725 18.8473 10.9268 18.9183 10.7143 18.961C10.5134 19.0015 10.2718 19.0009 10.0642 19.0005H10.0642L10 19.0004C8.89543 19.0004 8 19.8958 8 21.0004C8 22.1049 8.89543 23.0004 10 23.0004H16H22C23.1046 23.0004 24 22.1049 24 21.0004C24 19.8958 23.1046 19.0004 22 19.0004L21.9358 19.0005H21.9358C21.7282 19.0009 21.4866 19.0015 21.2857 18.961C21.0732 18.9183 20.8275 18.8473 20.586 18.691C20.3445 18.5347 20.1792 18.3396 20.0531 18.1632C19.9663 18.0417 19.8978 17.9008 19.8517 17.8039C19.7989 17.6928 19.7339 17.5481 19.6565 17.3755L19.6516 17.3646C19.3897 16.7811 18.9924 16.2722 18.5 15.8775V13.5445C19.8201 14.1504 20.8818 15.2212 21.4763 16.5457C21.5599 16.732 21.6158 16.8563 21.6579 16.9451C21.6683 16.9669 21.6767 16.9842 21.6835 16.9976L21.7032 16.9983C21.7668 17.0003 21.854 17.0004 22 17.0004C24.2091 17.0004 26 18.7912 26 21.0004C26 23.2095 24.2091 25.0004 22 25.0004H16H10C7.79086 25.0004 6 23.2095 6 21.0004C6 18.7912 7.79086 17.0004 10 17.0004C10.146 17.0004 10.2332 17.0003 10.2968 16.9983L10.3165 16.9976C10.3233 16.9842 10.3317 16.9669 10.3421 16.9451C10.3842 16.8563 10.4401 16.732 10.5237 16.5457C11.1182 15.2212 12.1799 14.1504 13.5 13.5445V15.8775ZM10.2976 17.034C10.2976 17.034 10.2976 17.0339 10.2977 17.0337L10.2978 17.0337L10.2976 17.034ZM21.7024 17.034C21.7024 17.0341 21.7024 17.0339 21.7022 17.0337L21.7023 17.0337L21.7024 17.034Z" fill="#6F6F6F"/>
<path d="M16 7L15.2929 6.29289L16 5.58579L16.7071 6.29289L16 7ZM17 17C17 17.5523 16.5523 18 16 18C15.4477 18 15 17.5523 15 17L17 17ZM11.2929 10.2929L15.2929 6.29289L16.7071 7.70711L12.7071 11.7071L11.2929 10.2929ZM16.7071 6.29289L20.7071 10.2929L19.2929 11.7071L15.2929 7.70711L16.7071 6.29289ZM17 7L17 17L15 17L15 7L17 7Z" fill="#6F6F6F"/>
<path d="M2 1H30V-1H2V1ZM31 2V30H33V2H31ZM30 31H2V33H30V31ZM1 30V2H-1V30H1ZM2 31C1.44772 31 1 30.5523 1 30H-1C-1 31.6569 0.343146 33 2 33V31ZM31 30C31 30.5523 30.5523 31 30 31V33C31.6569 33 33 31.6569 33 30H31ZM30 1C30.5523 1 31 1.44772 31 2H33C33 0.343146 31.6569 -1 30 -1V1ZM2 -1C0.343146 -1 -1 0.343146 -1 2H1C1 1.44772 1.44772 1 2 1V-1Z" fill="#6F6F6F"/>
</svg>
